<svg width="100" height="100" viewBox="0 0 100 100" fill="none" xmlns="http://www.w3.org/2000/svg">
  <path fill-rule="evenodd" clip-rule="evenodd" d="M0 0H100V100H0V0ZM100 0H0V100H100V0Z" fill="rgba(79, 70, 229, 0.03)"/>
  <path fill-rule="evenodd" clip-rule="evenodd" d="M10 0V100M20 0V100M30 0V100M40 0V100M50 0V100M60 0V100M70 0V100M80 0V100M90 0V100" stroke="rgba(79, 70, 229, 0.1)" stroke-width="0.5"/>
  <path fill-rule="evenodd" clip-rule="evenodd" d="M0 10H100M0 20H100M0 30H100M0 40H100M0 50H100M0 60H100M0 70H100M0 80H100M0 90H100" stroke="rgba(59, 130, 246, 0.1)" stroke-width="0.5"/>
</svg> 